<svg width="36" height="36" viewBox="0 0 36 36" fill="none" xmlns="http://www.w3.org/2000/svg">
<g clip-path="url(#clip0)">
<path d="M8.12878 6.02408C6.52286 6.48358 5.34375 7.96371 5.34375 9.71521C5.34375 11.4667 6.52286 12.9468 8.12878 13.4066L8.12878 36H10.2382L10.2382 13.4063C11.8438 12.9468 13.0232 11.4667 13.0232 9.71521C13.0232 7.96371 11.8438 6.48358 10.2382 6.0238V0H8.12878V6.02408ZM10.9138 9.71521C10.9138 10.6694 10.1376 11.4456 9.18347 11.4456C8.22931 11.4456 7.45313 10.6691 7.45313 9.71521C7.45313 8.76105 8.22931 7.98486 9.18347 7.98486C10.1376 7.98486 10.9138 8.76105 10.9138 9.71521Z" fill="black"/>
<path d="M14.166 29.2393C14.166 30.9908 15.3454 32.4709 16.9511 32.9304V36H19.0604V32.9304C20.6664 32.4709 21.8455 30.9905 21.8455 29.239C21.8455 27.4875 20.6664 26.0074 19.0604 25.5479V0H16.9511L16.9511 25.5479C15.3454 26.0074 14.166 27.4878 14.166 29.2393ZM19.7361 29.2393C19.7361 30.1932 18.9599 30.9694 18.0057 30.9694C17.0519 30.9694 16.2754 30.1932 16.2754 29.2393C16.2754 28.2851 17.0519 27.5089 18.0057 27.5089C18.9599 27.5089 19.7361 28.2851 19.7361 29.2393Z" fill="black"/>
<path d="M22.9902 17.4087C22.9902 19.1602 24.1693 20.6406 25.7753 21.1001V36H27.8846V21.1001C29.4903 20.6406 30.6697 19.1602 30.6697 17.4087C30.6697 15.6574 29.4903 14.177 27.8846 13.7175V0H25.7753L25.7753 13.7175C24.1693 14.177 22.9902 15.6574 22.9902 17.4087ZM28.5603 17.4087C28.5603 18.3628 27.7841 19.139 26.83 19.139C25.8758 19.139 25.0996 18.3628 25.0996 17.4087C25.0996 16.4548 25.8758 15.6783 26.83 15.6783C27.7841 15.6783 28.5603 16.4545 28.5603 17.4087Z" fill="black"/>
</g>
<defs>
<clipPath id="clip0">
<rect y="36" width="36" height="36" transform="rotate(-90 0 36)" fill="white"/>
</clipPath>
</defs>
</svg>
