<svg width="77" height="77" viewBox="0 0 77 77" fill="none" xmlns="http://www.w3.org/2000/svg">
<path fill-rule="evenodd" clip-rule="evenodd" d="M57.1372 19.2866C55.8307 17.9801 53.7125 17.9801 52.406 19.2866L38.212 33.4807L24.0188 19.2875C22.7124 17.9811 20.5941 17.9811 19.2877 19.2875C17.9812 20.594 17.9812 22.7122 19.2877 24.0187L33.4808 38.2118L19.2877 52.4049C17.9812 53.7114 17.9812 55.8296 19.2877 57.1361C20.5942 58.4426 22.7124 58.4426 24.0189 57.1361L38.212 42.943L52.406 57.137C53.7124 58.4435 55.8307 58.4435 57.1372 57.137C58.4436 55.8306 58.4436 53.7123 57.1372 52.4058L42.9432 38.2118L57.1372 24.0178C58.4437 22.7113 58.4437 20.5931 57.1372 19.2866Z" fill="#FFFFFF"/>
</svg>
