<svg width="56" height="50" viewBox="0 0 56 50" fill="none" xmlns="http://www.w3.org/2000/svg">
<path d="M51.466 5.75183C48.6257 2.67125 44.7284 0.974609 40.4912 0.974609C37.3239 0.974609 34.4234 1.97593 31.8698 3.95053C30.5813 4.94725 29.4138 6.16667 28.3844 7.58996C27.3555 6.16709 26.1876 4.94725 24.8987 3.95053C22.3455 1.97593 19.445 0.974609 16.2777 0.974609C12.0405 0.974609 8.14281 2.67125 5.30252 5.75183C2.49613 8.7964 0.950195 12.9557 0.950195 17.4642C0.950195 22.1045 2.67949 26.3522 6.39217 30.8322C9.71345 34.8396 14.4869 38.9077 20.0147 43.6183C21.9022 45.2271 24.0418 47.0506 26.2633 48.9929C26.8502 49.507 27.6033 49.79 28.3844 49.79C29.1652 49.79 29.9187 49.507 30.5047 48.9938C32.7263 47.051 34.8671 45.2267 36.7555 43.6171C42.2824 38.9073 47.0559 34.8396 50.3771 30.8318C54.0898 26.3522 55.8187 22.1045 55.8187 17.4638C55.8187 12.9557 54.2728 8.7964 51.466 5.75183Z" fill="black"/>
</svg>
