<svg width="30" height="30" viewBox="0 0 30 30" fill="none" xmlns="http://www.w3.org/2000/svg">
<mask id="mask0" mask-type="alpha" maskUnits="userSpaceOnUse" x="0" y="0" width="30" height="30">
<path fill-rule="evenodd" clip-rule="evenodd" d="M0 0.51062H29.4892V29.9998H0V0.51062Z" fill="white"/>
</mask>
<g mask="url(#mask0)">
<path fill-rule="evenodd" clip-rule="evenodd" d="M27.1066 21.8372C27.1066 25.0293 24.5189 27.617 21.3268 27.617H8.16255C4.97043 27.617 2.3834 25.0293 2.3834 21.8372V8.67293C2.3834 5.4808 4.97043 2.89314 8.16255 2.89314H21.3268C24.5189 2.89314 27.1066 5.4808 27.1066 8.67293V21.8372ZM21.3606 0.510376H8.12936C3.63958 0.510376 0 4.14995 0 8.6391V21.871C0 26.3608 3.63958 29.9997 8.12936 29.9997H21.3606C25.8498 29.9997 29.4894 26.3608 29.4894 21.871V8.6391C29.4894 4.14995 25.8498 0.510376 21.3606 0.510376Z" fill="#3A4047"/>
</g>
<path fill-rule="evenodd" clip-rule="evenodd" d="M14.9994 20.1796C12.1388 20.1796 9.82077 17.8608 9.82077 15.0007C9.82077 12.1399 12.1388 9.82048 14.9994 9.82048C17.8601 9.82048 20.1788 12.1399 20.1788 15.0007C20.1788 17.8608 17.8601 20.1796 14.9994 20.1796ZM14.9994 7.05884C10.6139 7.05884 7.05859 10.6143 7.05859 15.0007C7.05859 19.3858 10.6139 22.9412 14.9994 22.9412C19.3857 22.9412 22.9409 19.3858 22.9409 15.0007C22.9409 10.6143 19.3857 7.05884 14.9994 7.05884Z" fill="#3A4047"/>
<path fill-rule="evenodd" clip-rule="evenodd" d="M24.1174 7.35318C24.1174 8.16536 23.4589 8.8235 22.6474 8.8235C21.8348 8.8235 21.1763 8.16536 21.1763 7.35318C21.1763 6.54047 21.8348 5.88232 22.6474 5.88232C23.4589 5.88232 24.1174 6.54047 24.1174 7.35318Z" fill="#3A4047"/>
</svg>
