<?xml version="1.0" encoding="UTF-8"?><svg xmlns="http://www.w3.org/2000/svg" data-name="Layer 1" viewBox="0 0 100 100" x="0px" y="0px"><title>weather-icons</title><path d="M40.84,29A15.71,15.71,0,0,1,56.53,44.69c0,.63,0,1.74,0,1.74l.13,5.87h7.45a6.85,6.85,0,0,1,0,13.7L22.37,66C16.58,66,11.5,60.53,11.5,54.33a11.71,11.71,0,0,1,10-11.55l3.47-.5L26.22,39A15.78,15.78,0,0,1,40.84,29m0-6A21.68,21.68,0,0,0,20.63,36.84,17.67,17.67,0,0,0,5.5,54.33C5.5,63.81,13.13,72,22.37,72l41.77,0a12.85,12.85,0,0,0,0-25.7H62.56s0-1,0-1.61A21.69,21.69,0,0,0,40.84,23Z"/><path d="M84.76,38.54H83.5s0-.82,0-1.28A17.24,17.24,0,0,0,55.6,23.67a26.29,26.29,0,0,1,4.57,4.12,11.23,11.23,0,0,1,17.31,9.47c0,.51,0,1.42,0,1.42l.14,5.86h7.12a4.23,4.23,0,0,1,0,8.46h-5A16.39,16.39,0,0,1,81,59h3.78a10.23,10.23,0,0,0,0-20.46Z"/></svg>