<?xml version="1.0" encoding="UTF-8"?><svg xmlns="http://www.w3.org/2000/svg" xmlns:xlink="http://www.w3.org/1999/xlink" version="1.1" x="0px" y="0px" viewBox="0 0 100 100" style="enable-background:new 0 0 100 100;" xml:space="preserve"><title>weather-icons</title><g><path d="M30.6,19.8c-0.8,0-1.5-0.7-1.5-1.5v-3.8c0-0.8,0.7-1.5,1.5-1.5s1.5,0.7,1.5,1.5v3.8C32.1,19.2,31.4,19.8,30.6,19.8z"/></g><g><path d="M43.8,25.4c-0.4,0-0.8-0.1-1.1-0.4c-0.6-0.6-0.6-1.5,0-2.1l2.7-2.7c0.6-0.6,1.5-0.6,2.1,0c0.6,0.6,0.6,1.5,0,2.1L44.9,25   C44.6,25.3,44.2,25.4,43.8,25.4z"/></g><g><path d="M14.3,54.6c-0.4,0-0.8-0.1-1.1-0.4c-0.6-0.6-0.6-1.5,0-2.1l2.7-2.7c0.6-0.6,1.5-0.6,2.1,0c0.6,0.6,0.6,1.5,0,2.1l-2.7,2.7   C15.1,54.4,14.7,54.6,14.3,54.6z"/></g><g><path d="M11.6,38.5H7.8c-0.8,0-1.5-0.7-1.5-1.5s0.7-1.5,1.5-1.5h3.8c0.8,0,1.5,0.7,1.5,1.5S12.4,38.5,11.6,38.5z"/></g><g><path d="M17.2,25.3c-0.4,0-0.8-0.1-1.1-0.4l-2.7-2.7c-0.6-0.6-0.6-1.5,0-2.1c0.6-0.6,1.5-0.6,2.1,0l2.7,2.7c0.6,0.6,0.6,1.5,0,2.1   C18,25.1,17.6,25.3,17.2,25.3z"/></g><path d="M58.8,31c8.2,0,14.8,6.6,14.8,14.8c0,0.6,0,1.7,0,1.7l0.1,5.9h7.4c3.5,0,6.3,2.8,6.3,6.3S84.6,66,81.1,66H41.1  c-5.4,0-10.2-5.1-10.2-11c0-5.4,4-10,9.4-10.8l3.5-0.5l1.3-3.2C47.2,34.8,52.7,31,58.8,31 M58.8,25c-8.6,0-16.3,5.3-19.4,13.3  c-8.3,1.2-14.5,8.3-14.5,16.7c0,9.2,7.3,17,16.2,17h40.1c6.8,0,12.3-5.5,12.3-12.3c0-6.8-5.5-12.3-12.3-12.3h-1.5c0,0,0-1,0-1.5  C79.6,34.3,70.3,25,58.8,25C58.8,25,58.8,25,58.8,25z"/><path d="M26.4,42.4c-2.9-2.2-3.5-6.4-1.3-9.3s6.4-3.5,9.3-1.3c1.2,0.9,2.1,2.3,2.5,3.8l0.4-0.1c0.9-2,2.2-3.8,3.6-5.5  c-3.9-5.8-11.7-7.4-17.5-3.5s-7.4,11.7-3.5,17.5c0.9,1.4,2.1,2.5,3.4,3.5C24.1,45.7,25.2,44,26.4,42.4z"/></svg>