<?xml version="1.0" encoding="UTF-8"?><svg xmlns="http://www.w3.org/2000/svg" data-name="Layer 1" viewBox="0 0 100 100" x="0px" y="0px"><title>weather-icons</title><path d="M20.5,85.5a1.5,1.5,0,0,1-1.37-2.12l5-11a1.5,1.5,0,0,1,2.74,1.24l-5,11A1.52,1.52,0,0,1,20.5,85.5Z"/><path d="M28.5,92.5a1.5,1.5,0,0,1-1.37-2.12l5-11a1.5,1.5,0,0,1,2.74,1.24l-5,11A1.52,1.52,0,0,1,28.5,92.5Z"/><path d="M42.5,85.5a1.5,1.5,0,0,1-1.37-2.12l5-11a1.5,1.5,0,0,1,2.74,1.24l-5,11A1.52,1.52,0,0,1,42.5,85.5Z"/><path d="M50.5,92.5a1.5,1.5,0,0,1-1.37-2.12l5-11a1.5,1.5,0,1,1,2.74,1.24l-5,11A1.52,1.52,0,0,1,50.5,92.5Z"/><path d="M81.17,83.73l-4.11-2.38L81.17,79a1.5,1.5,0,1,0-1.5-2.59l-4.11,2.37V74a1.5,1.5,0,0,0-3,0v4.75l-4.12-2.37A1.5,1.5,0,1,0,66.94,79l4.12,2.38-4.12,2.38a1.5,1.5,0,0,0,.75,2.8,1.56,1.56,0,0,0,.75-.2L72.56,84V88.7a1.5,1.5,0,0,0,3,0V84l4.11,2.38a1.59,1.59,0,0,0,.75.2,1.5,1.5,0,0,0,.75-2.8Z"/><path d="M49,14.06A19.2,19.2,0,0,1,68.21,33.24c0,.72,0,2,0,2l.14,5.86h7.7a8.92,8.92,0,1,1,0,17.84l-48.5,0C20.22,58.92,14,52.28,14,44.43A14.58,14.58,0,0,1,26.41,30.06l3.48-.5,1.26-3.27A19.3,19.3,0,0,1,49,14.06m0-6A25.18,25.18,0,0,0,25.56,24.12,20.52,20.52,0,0,0,8,44.43c0,11,8.86,20.49,19.58,20.49l48.5,0a14.92,14.92,0,1,0,0-29.84H74.24s0-1.19,0-1.86A25.18,25.18,0,0,0,49,8.06Z"/></svg>