<?xml version="1.0" encoding="UTF-8"?><svg xmlns="http://www.w3.org/2000/svg" data-name="Layer 1" viewBox="0 0 100 100" x="0px" y="0px"><title>weather-icons</title><path d="M42,85.5a1.5,1.5,0,0,1-1.37-2.12l5-11a1.5,1.5,0,0,1,2.74,1.24l-5,11A1.52,1.52,0,0,1,42,85.5Z"/><path d="M50,92.5a1.5,1.5,0,0,1-1.37-2.12l5-11a1.5,1.5,0,0,1,2.74,1.24l-5,11A1.52,1.52,0,0,1,50,92.5Z"/><path d="M64,85.5a1.5,1.5,0,0,1-1.37-2.12l5-11a1.5,1.5,0,0,1,2.74,1.24l-5,11A1.52,1.52,0,0,1,64,85.5Z"/><path d="M72,92.5a1.5,1.5,0,0,1-1.37-2.12l5-11a1.5,1.5,0,0,1,2.74,1.24l-5,11A1.52,1.52,0,0,1,72,92.5Z"/><path d="M84.76,29.54H83.5s0-.82,0-1.28A17.24,17.24,0,0,0,52.72,17.54a21.68,21.68,0,0,0-32.09,10.3A17.67,17.67,0,0,0,5.5,45.33C5.5,54.81,13.13,63,22.37,63l41.77,0A12.85,12.85,0,0,0,77,50.15s0-.1,0-.15h7.78a10.23,10.23,0,0,0,0-20.46ZM64.14,57,22.37,57C16.58,57,11.5,51.53,11.5,45.33a11.71,11.71,0,0,1,10-11.55l3.47-.5L26.22,30a15.69,15.69,0,0,1,30.31,5.68c0,.63,0,1.74,0,1.74l.13,5.87h7.45a6.85,6.85,0,0,1,0,13.7ZM84.77,44H75.43A12.85,12.85,0,0,0,64.14,37.3H62.56s0-1,0-1.61A21.61,21.61,0,0,0,57.24,21.5a11.24,11.24,0,0,1,20.24,6.76c0,.51,0,1.42,0,1.42l.14,5.86h7.12a4.23,4.23,0,0,1,0,8.46Z"/></svg>