<?xml version="1.0" encoding="UTF-8"?><svg xmlns="http://www.w3.org/2000/svg" data-name="Layer 1" viewBox="0 0 100 100" x="0px" y="0px"><title>weather-icons</title><path d="M50,92.5a1.5,1.5,0,0,1-1.37-2.12l5-11a1.5,1.5,0,0,1,2.74,1.24l-5,11A1.52,1.52,0,0,1,50,92.5Z"/><path d="M64,85.5a1.5,1.5,0,0,1-1.37-2.12l5-11a1.5,1.5,0,0,1,2.74,1.24l-5,11A1.52,1.52,0,0,1,64,85.5Z"/><path d="M72,92.5a1.5,1.5,0,0,1-1.37-2.12l5-11a1.5,1.5,0,0,1,2.74,1.24l-5,11A1.52,1.52,0,0,1,72,92.5Z"/><path d="M76.08,35.1H74.24s0-1.19,0-1.86a25.18,25.18,0,0,0-48.65-9.12A20.52,20.52,0,0,0,8,44.43c0,11,8.86,20.49,19.58,20.49h8.69l-5.6,10.75A1.5,1.5,0,0,0,32,77.86H42.32L35.75,89.78a1.5,1.5,0,0,0,.59,2,1.46,1.46,0,0,0,.72.19,1.51,1.51,0,0,0,1.32-.78l7.79-14.14a1.48,1.48,0,0,0,0-1.48,1.49,1.49,0,0,0-1.29-.74H34.47l5.18-9.94,36.43,0a14.92,14.92,0,1,0,0-29.84Zm0,23.84-48.5,0C20.22,58.92,14,52.28,14,44.43A14.58,14.58,0,0,1,26.41,30.06l3.48-.5,1.26-3.27a19.18,19.18,0,0,1,37.06,7c0,.72,0,2,0,2l.14,5.86h7.7a8.92,8.92,0,1,1,0,17.84Z"/></svg>