<?xml version="1.0" encoding="UTF-8"?><svg xmlns="http://www.w3.org/2000/svg" xmlns:xlink="http://www.w3.org/1999/xlink" version="1.1" x="0px" y="0px" viewBox="0 0 100 100" style="enable-background:new 0 0 100 100;" xml:space="preserve"><title>weather-icons</title><g><path d="M50,19.5c-0.8,0-1.5-0.7-1.5-1.5V8c0-0.8,0.7-1.5,1.5-1.5s1.5,0.7,1.5,1.5v10C51.5,18.8,50.8,19.5,50,19.5z"/></g><g><path d="M72.6,28.9c-0.4,0-0.8-0.1-1.1-0.4c-0.6-0.6-0.6-1.5,0-2.1l7.1-7.1c0.6-0.6,1.5-0.6,2.1,0c0.6,0.6,0.6,1.5,0,2.1l-7.1,7.1   C73.4,28.7,73,28.9,72.6,28.9z"/></g><g><path d="M79.7,81.2c-0.4,0-0.8-0.1-1.1-0.4l-7.1-7.1c-0.6-0.6-0.6-1.5,0-2.1s1.5-0.6,2.1,0l7.1,7.1c0.6,0.6,0.6,1.5,0,2.1   C80.5,81.1,80.1,81.2,79.7,81.2z"/></g><g><path d="M50,93.5c-0.8,0-1.5-0.7-1.5-1.5V82c0-0.8,0.7-1.5,1.5-1.5s1.5,0.7,1.5,1.5v10C51.5,92.8,50.8,93.5,50,93.5z"/></g><g><path d="M20.3,81.2c-0.4,0-0.8-0.1-1.1-0.4c-0.6-0.6-0.6-1.5,0-2.1l7.1-7.1c0.6-0.6,1.5-0.6,2.1,0s0.6,1.5,0,2.1l-7.1,7.1   C21.1,81.1,20.7,81.2,20.3,81.2z"/></g><g><path d="M18,51.5H8c-0.8,0-1.5-0.7-1.5-1.5s0.7-1.5,1.5-1.5h10c0.8,0,1.5,0.7,1.5,1.5S18.8,51.5,18,51.5z"/></g><g><path d="M27.4,28.9c-0.4,0-0.8-0.1-1.1-0.4l-7.1-7.1c-0.6-0.6-0.6-1.5,0-2.1c0.6-0.6,1.5-0.6,2.1,0l7.1,7.1c0.6,0.6,0.6,1.5,0,2.1   C28.1,28.7,27.8,28.9,27.4,28.9z"/></g><path d="M66.6,67c-2.1,0-4.1-0.5-6-1.4c-8.6,6-20.5,3.9-26.4-4.7s-3.9-20.5,4.7-26.4c7.7-5.4,18.3-4.3,24.7,2.6  c1.4-1.5,3.1-2.7,5-3.5c-9.1-10.4-24.9-11.4-35.3-2.3S21.9,56.1,31,66.5s24.9,11.4,35.3,2.3c0.6-0.6,1.2-1.2,1.8-1.8H66.6z"/><path d="M86.2,64H66.6c-6.2-0.2-11.1-5.4-11-11.6c0.1-4.9,3.4-9.1,8-10.5c3.5-6.4,11.5-8.8,17.9-5.3c3.6,2,6.1,5.5,6.8,9.6  c4.9,1,8,5.7,7.1,10.6C94.5,61.1,90.6,64.2,86.2,64z M75.2,41c-3,0-5.6,1.8-6.7,4.6l-0.6,1.6l-1.7,0.2c-2.6,0.4-4.5,2.6-4.5,5.2  c0,2.8,2.1,5.1,4.9,5.3h19.6c1.7,0,3-1.4,3-3s-1.4-3-3-3h-3.7L82.4,49c0,0,0-0.5,0-0.8C82.4,44.2,79.2,41,75.2,41z"/></svg>