<?xml version="1.0" encoding="UTF-8"?><svg xmlns="http://www.w3.org/2000/svg" data-name="Layer 1" viewBox="0 0 100 100" x="0px" y="0px"><title>weather-icons</title><path d="M50,33.77A16.23,16.23,0,1,1,33.77,50,16.25,16.25,0,0,1,50,33.77m0-6A22.23,22.23,0,1,0,72.23,50,22.23,22.23,0,0,0,50,27.77Z"/><path d="M50.62,21.5a1.5,1.5,0,0,1-1.5-1.5V8a1.5,1.5,0,0,1,3,0V20A1.5,1.5,0,0,1,50.62,21.5Z"/><path d="M71.65,30.72a1.47,1.47,0,0,1-1.06-.44,1.49,1.49,0,0,1,0-2.12l8.48-8.48A1.5,1.5,0,0,1,81.2,21.8l-8.49,8.48A1.47,1.47,0,0,1,71.65,30.72Z"/><path d="M92,52.12H80a1.5,1.5,0,0,1,0-3H92a1.5,1.5,0,0,1,0,3Z"/><path d="M79.26,81.64a1.51,1.51,0,0,1-1.06-.44l-8.48-8.49a1.5,1.5,0,0,1,2.12-2.12l8.48,8.48a1.51,1.51,0,0,1-1.06,2.57Z"/><path d="M49.38,93.5a1.5,1.5,0,0,1-1.5-1.5V80a1.5,1.5,0,0,1,3,0V92A1.5,1.5,0,0,1,49.38,93.5Z"/><path d="M19.86,80.76a1.48,1.48,0,0,1-1.06-.44,1.51,1.51,0,0,1,0-2.12l8.49-8.48a1.5,1.5,0,1,1,2.12,2.12l-8.48,8.48A1.49,1.49,0,0,1,19.86,80.76Z"/><path d="M20,50.88H8a1.5,1.5,0,0,1,0-3H20a1.5,1.5,0,0,1,0,3Z"/><path d="M29.22,29.85a1.53,1.53,0,0,1-1.06-.44l-8.48-8.48A1.5,1.5,0,0,1,21.8,18.8l8.48,8.49a1.5,1.5,0,0,1-1.06,2.56Z"/></svg>